<svg xmlns="http://www.w3.org/2000/svg" viewBox="0 0 800 500" fill="none">
  <rect width="800" height="500" fill="#091950"/>
  <g opacity="0.08" stroke="#fff" stroke-width="1.5">
    <line x1="0" y1="400" x2="800" y2="400"/>
    <line x1="0" y1="250" x2="800" y2="250"/>
    <line x1="0" y1="100" x2="800" y2="100"/>
    <line x1="200" y1="0" x2="200" y2="500"/>
    <line x1="400" y1="0" x2="400" y2="500"/>
    <line x1="600" y1="0" x2="600" y2="500"/>
  </g>
  <g opacity="0.12" stroke="#2e58a6" stroke-width="1" fill="none">
    <rect x="60" y="260" width="200" height="140" rx="4"/>
    <rect x="90" y="290" width="40" height="60" rx="2"/>
    <rect x="150" y="290" width="40" height="60" rx="2"/>
    <rect x="210" y="290" width="30" height="60" rx="2"/>
    <line x1="60" y1="400" x2="260" y2="400"/>
    <rect x="540" y="220" width="200" height="180" rx="4"/>
    <rect x="560" y="250" width="60" height="80" rx="3"/>
    <rect x="640" y="250" width="60" height="80" rx="3"/>
    <circle cx="670" cy="420" r="20"/>
    <circle cx="610" cy="420" r="20"/>
    <line x1="540" y1="400" x2="740" y2="400"/>
    <line x1="560" y1="400" x2="560" y2="420" stroke-dasharray="4 3"/>
    <line x1="610" y1="420" x2="670" y2="420"/>
    <line x1="670" y1="400" x2="670" y2="420" stroke-dasharray="4 3"/>
    <rect x="300" y="120" width="200" height="280" rx="4"/>
    <circle cx="400" cy="180" r="30"/>
    <line x1="400" y1="210" x2="400" y2="260"/>
    <line x1="370" y1="240" x2="430" y2="240"/>
    <line x1="400" y1="260" x2="400" y2="320"/>
    <rect x="360" y="320" width="80" height="80" rx="2"/>
    <line x1="300" y1="400" x2="500" y2="400"/>
    <line x1="130" y1="250" x2="130" y2="290"/>
    <line x1="170" y1="250" x2="170" y2="290"/>
    <line x1="225" y1="250" x2="225" y2="290"/>
    <rect x="115" y="230" width="30" height="20" rx="3"/>
    <rect x="155" y="230" width="30" height="20" rx="3"/>
  </g>
  <g opacity="0.06" stroke="#fff" stroke-width="0.5">
    <path d="M 0 500 Q 100 450 200 460 Q 300 470 400 440 Q 500 410 600 430 Q 700 450 800 420 L 800 500 Z"/>
    <path d="M 0 500 Q 150 470 300 480 Q 450 490 600 465 Q 700 450 800 460 L 800 500 Z"/>
  </g>
</svg>
