<svg xmlns="http://www.w3.org/2000/svg" viewBox="0 0 300 200" fill="none">
  <rect x="20" y="100" width="260" height="90" rx="4" stroke="#091950" stroke-width="1.2" fill="#f4f5f7"/>
  <rect x="80" y="110" width="140" height="30" rx="3" stroke="#091950" stroke-width="1"/>
  <rect x="90" y="118" width="20" height="14" rx="1.5" stroke="#c2000b" stroke-width="1"/>
  <rect x="118" y="118" width="20" height="14" rx="1.5" stroke="#c2000b" stroke-width="1"/>
  <rect x="146" y="118" width="20" height="14" rx="1.5" stroke="#c2000b" stroke-width="1"/>
  <rect x="174" y="118" width="20" height="14" rx="1.5" stroke="#c2000b" stroke-width="1"/>
  <line x1="30" y1="150" x2="270" y2="150" stroke="#091950" stroke-width="1"/>
  <line x1="30" y1="170" x2="270" y2="170" stroke="#091950" stroke-width="0.5"/>
  <line x1="30" y1="180" x2="270" y2="180" stroke="#091950" stroke-width="0.5"/>
  <circle cx="55" cy="60" r="12" stroke="#091950" stroke-width="1.5"/>
  <path d="M45 85 Q45 70 55 65 Q65 70 65 85" stroke="#091950" stroke-width="1.5" fill="none"/>
  <rect x="38" y="80" width="34" height="22" rx="4" stroke="#091950" stroke-width="1.2"/>
  <circle cx="130" cy="50" r="12" stroke="#091950" stroke-width="1.5"/>
  <path d="M120 75 Q120 60 130 55 Q140 60 140 75" stroke="#091950" stroke-width="1.5" fill="none"/>
  <rect x="113" y="70" width="34" height="22" rx="4" stroke="#091950" stroke-width="1.2"/>
  <circle cx="205" cy="55" r="12" stroke="#091950" stroke-width="1.5"/>
  <path d="M195 80 Q195 65 205 60 Q215 65 215 80" stroke="#091950" stroke-width="1.5" fill="none"/>
  <rect x="188" y="75" width="34" height="22" rx="4" stroke="#091950" stroke-width="1.2"/>
  <circle cx="250" cy="65" r="10" stroke="#091950" stroke-width="1.5"/>
  <path d="M242 85 Q242 72 250 68 Q258 72 258 85" stroke="#091950" stroke-width="1.5" fill="none"/>
  <rect x="236" y="82" width="28" height="18" rx="4" stroke="#091950" stroke-width="1.2"/>
  <line x1="55" y1="90" x2="55" y2="110" stroke="#091950" stroke-width="1"/>
  <line x1="130" y1="82" x2="130" y2="110" stroke="#091950" stroke-width="1"/>
  <line x1="205" y1="86" x2="205" y2="110" stroke="#091950" stroke-width="1"/>
  <line x1="250" y1="92" x2="250" y2="110" stroke="#091950" stroke-width="1"/>
  <path d="M90 45 L95 50 L90 55" stroke="#2e58a6" stroke-width="1.2" fill="none" stroke-linecap="round"/>
  <path d="M170 40 L175 45 L170 50" stroke="#2e58a6" stroke-width="1.2" fill="none" stroke-linecap="round"/>
  <rect x="85" y="155" width="15" height="20" rx="1.5" stroke="#2e58a6" stroke-width="1"/>
  <rect x="105" y="155" width="15" height="20" rx="1.5" stroke="#2e58a6" stroke-width="1"/>
  <rect x="195" y="155" width="15" height="20" rx="1.5" stroke="#2e58a6" stroke-width="1"/>
  <rect x="215" y="155" width="15" height="20" rx="1.5" stroke="#2e58a6" stroke-width="1"/>
  <line x1="88" y1="175" x2="88" y2="190" stroke="#091950" stroke-width="1"/>
  <line x1="97" y1="175" x2="97" y2="190" stroke="#091950" stroke-width="1"/>
  <line x1="108" y1="175" x2="108" y2="190" stroke="#091950" stroke-width="1"/>
  <line x1="117" y1="175" x2="117" y2="190" stroke="#091950" stroke-width="1"/>
  <line x1="198" y1="175" x2="198" y2="190" stroke="#091950" stroke-width="1"/>
  <line x1="207" y1="175" x2="207" y2="190" stroke="#091950" stroke-width="1"/>
  <line x1="218" y1="175" x2="218" y2="190" stroke="#091950" stroke-width="1"/>
  <line x1="227" y1="175" x2="227" y2="190" stroke="#091950" stroke-width="1"/>
</svg>
